# xmcd
#
# Track frame offsets:
#	188
#	16388
#	31163
#	46388
#	64913
#	81863
#	100088
#	119288
#	133913
#	150638
#	169688
#	185138
#
# Disc length: 2687 seconds
#
# Revision: 0
# Processed by: cddbd v1.5.1PL0 Copyright (c) Steve Scherf et al.
# Submitted via: EasyCDDAExtractor 7.5.0.1
#
DISCID=9d0a7d0c
DTITLE=Leandro and Leonardo - Mexe Mexe
DYEAR=1993
DGENRE=Sertão
TTITLE0=Bobo
TTITLE1=Mexe mexe
TTITLE2=Quem e
TTITLE3=Outra chance
TTITLE4=Seja benvinda
TTITLE5=Em nome do amor
TTITLE6=Quero seu o seu dono
TTITLE7=Gosto dela
TTITLE8=A vida tem dessas coisas
TTITLE9=Uma historia sem fim
TTITLE10=O quanto nosso amor valeu
TTITLE11=Diz que me ama
EXTD=
EXTT0=
EXTT1=
EXTT2=
EXTT3=
EXTT4=
EXTT5=
EXTT6=
EXTT7=
EXTT8=
EXTT9=
EXTT10=
EXTT11=
PLAYORDER=
